<?xml version="1.0" standalone="no"?>
<!DOCTYPE svg PUBLIC "-//W3C//DTD SVG 20010904//EN"
 "http://www.w3.org/TR/2001/REC-SVG-20010904/DTD/svg10.dtd">
<svg version="1.0" xmlns="http://www.w3.org/2000/svg"
 width="395.000000pt" height="393.000000pt" viewBox="0 0 395.000000 393.000000"
 preserveAspectRatio="xMidYMid meet">

<g transform="translate(0.000000,393.000000) scale(0.100000,-0.100000)"
fill="#000000" stroke="none">
<path d="M1349 2668 c-342 -684 -781 -1559 -976 -1946 l-355 -702 1957 0 1956
0 -385 762 -384 763 -284 64 c-156 35 -600 134 -988 221 -660 148 -699 158
-610 155 80 -2 75 -1 -30 6 -244 18 -277 -4 355 243 308 120 662 259 787 308
l227 89 -319 640 c-176 351 -322 639 -325 639 -3 0 -284 -559 -626 -1242z"/>
<path d="M1420 1973 c19 -2 368 -28 775 -58 407 -30 757 -56 779 -59 21 -2 35
-1 30 4 -9 9 -1518 121 -1584 118 l-35 -1 35 -4z"/>
</g>
</svg>
